<?xml version="1.0" encoding="UTF-8"?>
<svg width="179px" height="44px" viewBox="0 0 179 44" version="1.1" xmlns="http://www.w3.org/2000/svg" xmlns:xlink="http://www.w3.org/1999/xlink">
    <!-- Generator: Sketch 49.3 (51167) - http://www.bohemiancoding.com/sketch -->
    <title>logo-horizontal-blue - 850x207 - Copy</title>
    <desc>Created with Sketch.</desc>
    <defs></defs>
    <g id="Page-1" stroke="none" stroke-width="1" fill="none" fill-rule="evenodd">
        <g id="Home_v3" transform="translate(-98.000000, -8651.000000)" fill="#fff" fill-rule="nonzero">
            <g id="footer" transform="translate(98.000000, 8651.000000)">
                <g id="logo-horizontal-blue---850x207---Copy">
                    <g id="_FMClarity_copy_2_1_" transform="translate(86.785714, 16.071429)">
                        <g id="_FMClarity_copy_2">
                            <path d="M11.3046429,18.2989286 C6.12,18.2989286 4.11107143,14.67 4.08535714,11.1953571 C4.05,7.68535714 6.23892857,3.90857143 11.3046429,3.90857143 C13.1335714,3.90857143 14.9882143,4.53535714 16.3671429,5.88535714 L18.9996429,3.33642857 C16.8428571,1.20857143 14.1460714,0.128571429 11.3014286,0.128571429 C3.72214286,0.128571429 0.147857143,5.70214286 0.183214286,11.1857143 C0.212142857,16.6371429 3.50678571,22.0017857 11.3014286,22.0017857 C14.3228571,22.0017857 17.1160714,21.0085714 19.2696429,18.8807143 L16.5760714,16.155 C15.2003571,17.5435714 13.1335714,18.2989286 11.3046429,18.2989286 Z M20.1439286,21.5292857 L23.7728571,21.5292857 L23.7728571,0.585 L20.1439286,0.585 L20.1439286,21.5292857 Z M38.4235714,8.7975 C37.5814286,7.32535714 35.6914286,6.39642857 33.7210714,6.39642857 C29.4010714,6.3675 26.0196429,9.03535714 26.0196429,14.13 C26.0196429,19.3082143 29.2596429,22.0082143 33.6278571,21.9760714 C35.28,21.9439286 37.5814286,21.105 38.4235714,19.3628571 L38.6067857,21.5228571 L42.0525,21.5228571 L42.0525,6.75964286 L38.5457143,6.75964286 L38.4235714,8.7975 Z M34.0457143,18.6235714 C31.6157143,18.6235714 29.6742857,16.9489286 29.6742857,14.1332143 C29.6742857,11.3175 31.6221429,9.66535714 34.0457143,9.66535714 C39.7992857,9.66214286 39.7992857,18.6235714 34.0457143,18.6235714 Z M48.6417857,8.46642857 L48.3685714,6.75964286 L44.9807143,6.75964286 L44.9807143,21.5325 L48.6417857,21.5325 L48.6417857,13.7410714 C48.6417857,11.0121429 50.4032143,9.99 52.3253571,9.99 C53.5242857,9.99 54.2153571,10.3242857 54.9675,10.9510714 L56.6132143,7.77857143 C55.8032143,6.96857143 54.3342857,6.37071429 52.8075,6.37071429 C51.3064286,6.37071429 49.7732143,6.6375 48.6417857,8.46642857 Z M57.8346429,21.5292857 L61.4892857,21.5292857 L61.4892857,6.69857143 L57.8346429,6.69857143 L57.8346429,21.5292857 Z M71.6817857,18.4146429 C70.5439286,18.4146429 69.7628571,17.73 69.7628571,16.3189286 L69.7628571,9.93535714 L73.8675,9.93535714 L73.8675,6.78535714 L69.7885714,6.78535714 L69.7885714,2.59392857 L66.1307143,2.98607143 L66.1307143,6.79178571 L63.3760714,6.79178571 L63.3760714,9.93857143 L66.1307143,9.93857143 L66.1307143,16.3157143 C66.1307143,20.0025 68.2264286,21.8314286 71.4278571,21.7125 C72.54,21.6771429 73.4078571,21.51 74.4557143,21.0857143 L73.4432143,17.9614286 C72.9160714,18.2346429 72.2507143,18.4146429 71.6817857,18.4146429 Z M87.2903571,6.75964286 L84.5967857,13.2332143 L83.07,17.3121429 L81.6589286,13.1464286 L79.4121429,6.76607143 L75.1596429,6.76607143 L81.0642857,21.2978571 L78.3096429,27.7071429 L82.3210714,27.7071429 L91.3435714,6.76285714 L87.2903571,6.75964286 Z M57.8346429,5.63142857 L61.4892857,5.63142857 L61.4892857,2.53285714 L57.8346429,2.53285714 L57.8346429,5.63142857 Z" id="Shape"></path>
                        </g>
                    </g>
                    <g id="_FMClarity_copy_1_" transform="translate(45.000000, 16.071429)">
                        <g id="_FMClarity_copy">
                            <path d="M1.52035714,21.5292857 L5.47392857,21.5292857 L5.47392857,13.7764286 L15.9910714,13.7764286 L15.9910714,10.1153571 L5.47392857,10.1153571 L5.47392857,4.39071429 L16.5921429,4.39071429 L16.5921429,0.585 L1.52035714,0.585 L1.52035714,21.5292857 Z M35.6817857,0.585 L29.1182143,9.6075 L22.5546429,0.585 L18,0.585 L18,21.5517857 L21.9567857,21.5517857 L21.9567857,6.30642857 L28.6392857,15.4510714 L29.4203571,15.4510714 L36.2539286,6.34178571 L36.2539286,21.555 L40.2107143,21.555 L40.2107143,0.585 L35.6817857,0.585 Z" id="Shape"></path>
                        </g>
                    </g>
                    <g id="Shape_123_copy_23_1_" transform="translate(22.500000, 6.428571)">
                        <g id="Shape_123_copy_23">
                            <path d="M0.228214286,24.5571429 L17.7460714,32.3614286 L17.7460714,26.0871429 L0.228214286,18.4628571 L0.228214286,24.5571429 Z M0.228214286,16.4539286 L17.7460714,24.2517857 L17.7460714,17.9839286 L0.228214286,10.3596429 L0.228214286,16.4539286 Z M0.228214286,37.4175 L17.7460714,37.4335714 L17.7460714,34.1614286 L0.228214286,26.5371429 L0.228214286,37.4175 Z M0.228214286,8.05178571 L17.7460714,15.8560714 L17.7460714,9.57535714 L0.228214286,1.9575 L0.228214286,8.05178571 Z" id="Shape"></path>
                        </g>
                    </g>
                    <g id="Shape_123_copy_28_2_" transform="translate(6.428571, 0.000000)">
                        <path d="M2.99892857,38.79 L14.7310714,30.9857143 L14.7310714,24.8914286 L2.99571429,32.5157143 L2.99892857,38.79 Z M2.99892857,30.6803571 L14.7342857,22.8792857 L14.7342857,16.785 L2.99892857,24.4092857 L2.99892857,30.6803571 Z M2.99892857,43.8621429 L14.7342857,43.8460714 L14.7342857,32.9657143 L2.99892857,40.59 L2.99892857,43.8621429 Z M2.99892857,22.2814286 L14.7342857,14.4771429 L14.7342857,8.38607143 L2.99892857,16.0039286 L2.99892857,22.2814286 Z M2.99892857,14.1782143 L14.7342857,6.37392857 L14.7342857,0.276428571 L2.99892857,7.90071429 L2.99892857,14.1782143 Z" id="Shape"></path>
                    </g>
                    <g id="Shape_123_copy_33_1_" transform="translate(0.000000, 12.857143)">
                        <g id="Shape_123_copy_33">
                            <path d="M0,27.0128571 L7.81392857,20.8221429 L7.81392857,15.9910714 L0,22.0371429 L0,27.0128571 Z M0,20.5875 L7.81392857,14.4 L7.81392857,9.57214286 L0,15.6117857 L0,20.5875 Z M0,31.0403571 L7.81392857,31.0210714 L7.81392857,22.3971429 L0,28.44 L0,31.0403571 Z M0,13.9242857 L7.81392857,7.73678571 L7.81392857,2.89928571 L0,8.94857143 L0,13.9242857 Z" id="Shape"></path>
                        </g>
                    </g>
                </g>
            </g>
        </g>
    </g>
</svg>