<svg xmlns="http://www.w3.org/2000/svg" width="761" height="230" viewBox="0 0 761 230" fill="none"><path d="M168.8 146.9H154.2V210.6H168.8V146.9Z" fill="white"></path><path d="M190.3 146.9H204.9V156.8C209 150.8 214.9 145.6 224.8 145.6C239.2 145.6 247.5 155.3 247.5 170.1V210.7H232.9V174.5C232.9 164.6 228 158.9 219.3 158.9C210.9 158.9 204.9 164.8 204.9 174.7V210.7H190.3V146.9Z" fill="white"></path><path d="M262.3 202.3L268.8 192.4C275.7 197.6 283.2 200.2 289.7 200.2C296 200.2 299.6 197.5 299.6 193.3V193.1C299.6 188.2 292.8 186.5 285.4 184.2C276 181.5 265.5 177.7 265.5 165.5V165.3C265.5 153.2 275.5 145.9 288.2 145.9C296.2 145.9 304.9 148.7 311.6 153.1L305.8 163.5C299.6 159.8 293.1 157.5 287.8 157.5C282.1 157.5 278.9 160.2 278.9 163.9V164.1C278.9 168.7 285.8 170.6 293.3 173C302.6 175.9 313.1 180.1 313.1 191.6V191.8C313.1 205.2 302.7 211.8 289.4 211.8C280.3 211.8 270.3 208.5 262.3 202.3Z" fill="white"></path><path d="M330.3 146.9H344.9V157.5C349.6 150.9 356.2 145.5 366.5 145.5C381.6 145.5 396.2 157.5 396.2 178.6V178.8C396.2 199.9 381.7 211.9 366.5 211.9C356 211.9 349.4 206.6 344.9 200.7V229.9H330.3V146.9ZM381.3 178.8V178.6C381.3 166.3 373 158.2 363.1 158.2C353.2 158.2 344.5 166.4 344.5 178.6V178.8C344.5 191.1 353.2 199.2 363.1 199.2C373.1 199.2 381.3 191.4 381.3 178.8Z" fill="white"></path><path d="M427.8 146.9H413.2V210.6H427.8V146.9Z" fill="white"></path><path d="M450.5 146.9H465.1V161.3C469.1 151.8 476.4 145.2 487.7 145.7V161.2H486.9C474.1 161.2 465.2 169.5 465.2 186.4V210.7H450.6V146.9H450.5Z" fill="white"></path><path d="M499.3 179V178.8C499.3 160.6 512.2 145.6 530.4 145.6C550.7 145.6 560.9 161.5 560.9 179.9C560.9 181.2 560.8 182.6 560.7 184H513.9C515.5 194.4 522.8 200.2 532.2 200.2C539.3 200.2 544.4 197.5 549.5 192.6L558.1 200.2C552.1 207.4 543.7 212.2 532 212.2C513.5 212 499.3 198.6 499.3 179ZM546.5 174.3C545.5 164.9 540 157.5 530.3 157.5C521.4 157.5 515.1 164.4 513.8 174.3H546.5Z" fill="white"></path><path d="M581.1 193V159.4H573V146.8H581.1V129.3H595.7V146.8H612.8V159.4H595.7V190.7C595.7 196.4 598.6 198.7 603.5 198.7C606.8 198.7 609.7 198 612.6 196.5V208.5C609 210.6 604.9 211.8 599.4 211.8C588.7 211.7 581.1 207 581.1 193Z" fill="white"></path><path d="M626.5 179V178.8C626.5 160.6 639.4 145.6 657.6 145.6C677.9 145.6 688.1 161.5 688.1 179.9C688.1 181.2 688 182.6 687.9 184H641.1C642.7 194.4 650 200.2 659.4 200.2C666.5 200.2 671.6 197.5 676.7 192.6L685.3 200.2C679.3 207.4 670.9 212.2 659.2 212.2C640.7 212 626.5 198.6 626.5 179ZM673.7 174.3C672.7 164.9 667.2 157.5 657.5 157.5C648.6 157.5 642.3 164.4 641 174.3H673.7Z" fill="white"></path><path d="M701.8 179.1V178.9C701.8 160.8 715.8 145.6 734.9 145.6C747 145.6 754.5 150.1 760.4 156.6L751.3 166.4C746.8 161.7 742.1 158.4 734.8 158.4C724.2 158.4 716.5 167.6 716.5 178.7V178.9C716.5 190.2 724.3 199.4 735.6 199.4C742.5 199.4 747.5 196.1 752.1 191.4L760.9 200.1C754.6 207.1 747.3 212.1 734.8 212.1C715.8 212 701.8 197.2 701.8 179.1Z" fill="white"></path><path d="M161.4 137.9C165.708 137.9 169.2 134.408 169.2 130.1C169.2 125.792 165.708 122.3 161.4 122.3C157.092 122.3 153.6 125.792 153.6 130.1C153.6 134.408 157.092 137.9 161.4 137.9Z" fill="white"></path><path d="M420.4 137.9C424.708 137.9 428.2 134.408 428.2 130.1C428.2 125.792 424.708 122.3 420.4 122.3C416.092 122.3 412.6 125.792 412.6 130.1C412.6 134.408 416.092 137.9 420.4 137.9Z" fill="white"></path><path d="M111.5 156C107.1 152.9 103.7 148.5 103.7 142C103.7 139.1 105.1 136.4 106.9 134.2L77.8 155.9C70.2 161.2 65.3 170 65.3 179.9C65.3 196.1 78.4001 209.2 94.6001 209.2C110.8 209.2 123.9 196.1 123.9 179.9C123.8 170 118.9 161.3 111.5 156Z" fill="white"></path><path d="M30.1 172C46.282 172 59.4001 158.882 59.4001 142.7C59.4001 126.518 46.282 113.4 30.1 113.4C13.9181 113.4 0.800049 126.518 0.800049 142.7C0.800049 158.882 13.9181 172 30.1 172Z" fill="white"></path><path d="M15.4 93C24 98 34.1 98.1 42.5 94.1C42.5 94.1 42.5 94.1 42.6 94.1L76.7 80C73.7 80.3 70.2 80.2 67.4 78.6C61.8 75.3 59.6 70.2 59.1 64.8C58.2 55.7 53.1 47.2 44.6 42.3C30.6 34.2 12.7 39 4.59999 53C-3.50001 67 1.4 84.9 15.4 93Z" fill="white"></path><path d="M95.1 75.8C90.6 75.8 86.4 76.8001 82.6 78.6001C82.6 78.6001 82.4999 78.6001 82.3999 78.7001L47.2 93.2001C50.6 92.8001 55 92.7 57.9 94.4C63.7 97.7 65.6 104.4 65.9 107.5C66.6 116.3 71.2 123.9 77.9 128.8C80.4 130.6 85.2 135.6 85.2 142.3C85.2 145.7 82.8 149.6 80.7 152.4L111.2 129.6C111.3 129.5 111.4 129.5 111.4 129.4L112 128.9C119.4 123.6 124.3 114.9 124.3 105.1C124.4 88.9001 111.3 75.8 95.1 75.8Z" fill="white"></path><path d="M160.2 96.9C176.382 96.9 189.5 83.782 189.5 67.6001C189.5 51.4181 176.382 38.3 160.2 38.3C144.018 38.3 130.9 51.4181 130.9 67.6001C130.9 83.782 144.018 96.9 160.2 96.9Z" fill="white"></path><path d="M95.1001 59.3C111.282 59.3 124.4 46.182 124.4 30C124.4 13.8181 111.282 0.700012 95.1001 0.700012C78.9181 0.700012 65.8 13.8181 65.8 30C65.8 46.182 78.9181 59.3 95.1001 59.3Z" fill="white"></path></svg>